PathFileType	4	(X/Y/Z)	C:/Users/opensim2020/Desktop/walking_exp_matlab/subject06_walking15_straight_03.trc																																																																																																																																											
DataRate	CameraRate	NumFrames	NumMarkers	Units	OrigDataRate	OrigDataStartFrame	OrigNumFrames																																																																																																																																							
100	100	8	47	mm	100	2137	193																																																																																																																																							
Frame#	Time	LFHD			RFHD			LBHD			RBHD			C7			T10			CLAV			STRN			RBAK			LSHO			LUPA			LELB			LFRM			LWRA			LWRB			LFIN			RSHO			RUPA			RELB			RFRM			RWRA			RWRB			RFIN			LASI			RASI			LPSI			RPSI			LTHI			LKNE			LTIB			LANK			LHEE			LTOE			RTHI			RKNE			RTIB			RANK			RHEE			RTOE			*39			*40			*41			*42			*43			*44			*45			*46		
		X1	Y1	Z1	X2	Y2	Z2	X3	Y3	Z3	X4	Y4	Z4	X5	Y5	Z5	X6	Y6	Z6	X7	Y7	Z7	X8	Y8	Z8	X9	Y9	Z9	X10	Y10	Z10	X11	Y11	Z11	X12	Y12	Z12	X13	Y13	Z13	X14	Y14	Z14	X15	Y15	Z15	X16	Y16	Z16	X17	Y17	Z17	X18	Y18	Z18	X19	Y19	Z19	X20	Y20	Z20	X21	Y21	Z21	X22	Y22	Z22	X23	Y23	Z23	X24	Y24	Z24	X25	Y25	Z25	X26	Y26	Z26	X27	Y27	Z27	X28	Y28	Z28	X29	Y29	Z29	X30	Y30	Z30	X31	Y31	Z31	X32	Y32	Z32	X33	Y33	Z33	X34	Y34	Z34	X35	Y35	Z35	X36	Y36	Z36	X37	Y37	Z37	X38	Y38	Z38	X39	Y39	Z39	X40	Y40	Z40	X41	Y41	Z41	X42	Y42	Z42	X43	Y43	Z43	X44	Y44	Z44	X45	Y45	Z45	X46	Y46	Z46	X47	Y47	Z47
																																																																																																																																														
1	0	-1014.19	1639.61621	1346.43481	-996.85669	1635.57349	1477.59985	-1147.46179	1589.06323	1366.01294	-1128.80469	1589.89563	1494.02734	-1148.57825	1442.50952	1427.3562	-1225.19031	1121.64966	1447.45459	-1047.60864	1352.25732	1420.5918	-1032.94177	1174.17224	1422.08264	-1235.41443	1288.81958	1521.13513	-1114.31531	1387.1217	1262.88037	-1196.56897	1203.46375	1201.56604	-1248.85083	1103.32959	1197.2981	-1291.34424	958.39502	1177.80334	-1278.27002	828.25549	1214.75208	-1340.61792	849.68024	1185.28589	-1336.84167	758.23828	1183.39136	-1073.63647	1394.72009	1583.19995	-1115.98511	1204.78162	1685.19727	-1108.68164	1084.27966	1703.45593	-1069.83838	970.78607	1713.70288	-986.43689	851.26147	1665.73816	-1032.52771	839.74658	1713.7616	-978.96484	774.76233	1706.63892	-1061.07666	950.6156	1334.84924	-1062.81458	948.81854	1554.28943	-1218.78149	983.04877	1358.3219	-1212.27856	986.84387	1526.92993	-1083.68896	641.45947	1262.72742	-1034.79309	487.24609	1295.46008	-984.54169	240.763	1300.81616	-918.24713	79.37538	1339.37268	-950.33008	54.61602	1386.55164	-770.08771	89.50493	1346.81482	-1181.26709	626.17914	1605.1145	-1212.92407	502.98331	1588.09302	-1351.90515	270.81171	1591.57422	-1432.13452	99.42519	1550.37683	-1479.75562	86.43034	1509.01843	-1291.13416	34.97678	1540.25623	-1104.72266	1683.9397	1415.62659	NaN	NaN	NaN	NaN	NaN	NaN	NaN	NaN	NaN	NaN	NaN	NaN	NaN	NaN	NaN	NaN	NaN	NaN	NaN	NaN	NaN
2	0.01	-1006.99377	1639.2771	1346.02002	-989.64258	1635.0874	1477.17407	-1140.24512	1588.73584	1365.47034	-1121.83667	1589.56519	1493.69617	-1141.43396	1441.95557	1426.78748	-1217.13794	1120.91235	1446.79224	-1040.34705	1351.95032	1419.98706	-1025.12988	1173.96838	1421.53601	-1228.00366	1288.14136	1520.60193	-1107.07153	1386.67981	1262.31812	-1189.60803	1203.16064	1201.22607	-1242.46338	1103.11694	1197.39087	-1284.71094	957.95837	1178.42883	-1271.8678	827.98828	1216.05225	-1334.00671	849.42828	1186.26343	-1330.48853	757.849	1185.08313	-1066.41296	1394.2998	1582.57764	-1108.12341	1204.2262	1684.54932	-1100.74536	1083.76428	1702.82983	-1062.29517	970.19348	1713.05591	-978.97034	850.39551	1664.89014	-1025.39905	839.03656	1713.27454	-971.93097	773.88965	1706.19922	-1052.40796	950.39984	1334.21045	-1054.92834	948.2771	1553.44739	-1209.96313	982.55475	1357.36633	-1203.85815	986.11359	1525.95032	-1075.69214	640.98779	1262.75195	-1027.53711	486.74323	1295.37305	-978.39551	239.25677	1300.9928	-913.11926	77.8571	1339.63293	-945.11646	53.23212	1387.0575	-764.99707	87.25806	1346.42175	-1173.38306	626.04779	1604.83997	-1205.35718	502.91266	1588.04468	-1347.58557	272.38879	1591.90393	-1430.49219	102.21748	1551.15393	-1478.31824	90.10894	1510	-1291.06201	34.99943	1540.36292	-1097.48743	1683.62048	1415.20544	NaN	NaN	NaN	NaN	NaN	NaN	NaN	NaN	NaN	NaN	NaN	NaN	NaN	NaN	NaN	NaN	NaN	NaN	NaN	NaN	NaN
3	0.02	-999.46429	1638.77527	1345.62781	-982.51813	1634.76184	1476.71863	-1133.02222	1588.54517	1364.80066	-1114.72058	1589.24683	1493.05554	-1134.29272	1441.521	1426.10889	-1208.98865	1120.21338	1446.04773	-1033.42017	1351.29272	1419.56201	-1017.16034	1173.90369	1420.91724	-1220.49341	1287.44836	1519.88672	-1099.74927	1386.36865	1261.65405	-1182.56604	1202.83923	1200.44409	-1235.37244	1102.68127	1197.35901	-1277.97913	957.6626	1178.85681	-1264.82043	827.63916	1217.05029	-1326.84167	849.02795	1187.0824	-1323.51367	757.31464	1186.58276	-1059.20837	1394.06604	1581.85291	-1100.65588	1203.86511	1683.6814	-1093.28723	1083.37341	1701.78186	-1054.93701	969.66223	1712.28857	-972.22809	849.50812	1664.25476	-1018.41003	838.33997	1712.75415	-965.22223	773.12592	1705.84033	-1043.21436	950.34747	1333.54041	-1045.74353	948.28265	1552.95825	-1200.74719	982.17218	1356.45679	-1195.29932	985.46527	1524.91504	-1067.18494	640.71704	1262.9458	-1020.10809	486.22842	1295.07751	-973.56134	238.07883	1301.34241	-909.85596	75.71645	1340.12122	-942.00854	51.6081	1387.83704	-761.86609	83.87558	1345.85034	-1165.1167	625.81268	1604.50085	-1197.3147	502.66486	1587.72058	-1342.82324	274.06891	1592.03308	-1428.61145	105.20525	1551.91943	-1476.71887	94.03691	1510.84863	-1290.88818	34.95994	1540.33105	-1090.24182	1683.34094	1414.67273	NaN	NaN	NaN	NaN	NaN	NaN	NaN	NaN	NaN	NaN	NaN	NaN	NaN	NaN	NaN	NaN	NaN	NaN	NaN	NaN	NaN
4	0.03	-991.9679	1638.52515	1345.06299	-975.34125	1634.46228	1476.22595	-1125.71326	1588.41467	1364.00635	-1107.43164	1588.95764	1492.12988	-1126.96509	1441.04993	1425.27161	-1200.61621	1119.51611	1445.22888	-1025.85388	1351.1554	1418.75256	-1008.96735	1173.88647	1420.1438	-1212.83167	1286.73376	1519.06506	-1092.2865	1385.97375	1260.88977	-1174.89758	1202.40991	1199.78088	-1227.0293	1102.06226	1197.24707	-1270.27673	957.17151	1179.3551	-1257.14099	827.14624	1218.04077	-1319.28552	848.36157	1187.79199	-1315.86633	756.67676	1187.8468	-1051.91809	1393.85339	1581.08813	-1093.06458	1203.66504	1682.83508	-1085.43774	1083.02466	1700.88928	-1047.68567	969.2099	1711.48584	-965.22119	848.67804	1663.76904	-1011.71295	837.76984	1712.23315	-958.72137	772.27838	1705.35486	-1033.86719	950.25745	1332.73108	-1036.33301	948.37488	1552.41992	-1191.47961	981.77594	1355.43945	-1186.44092	984.78143	1523.85144	-1058.33948	640.68341	1263.19678	-1012.45557	485.59326	1294.53601	-969.40289	236.14862	1301.39734	-908.46344	73.17416	1340.85913	-940.72546	49.67122	1388.89014	-760.64459	79.39591	1345.31482	-1156.5481	625.60199	1604.13965	-1188.69006	502.35074	1587.33691	-1337.69751	275.86392	1592.17273	-1426.4563	108.33891	1552.66919	-1474.82996	98.2383	1511.71326	-1290.72168	35.02769	1540.35291	-1082.91357	1683.11584	1413.99194	NaN	NaN	NaN	NaN	NaN	NaN	NaN	NaN	NaN	NaN	NaN	NaN	NaN	NaN	NaN	NaN	NaN	NaN	NaN	NaN	NaN
5	0.04	-984.46295	1638.41284	1344.44348	-968.02356	1634.17749	1475.5752	-1118.22021	1588.29004	1363.12085	-1100.38367	1588.78638	1491.44165	-1119.55444	1440.64722	1424.31726	-1191.99817	1118.79175	1444.23755	-1017.9967	1351.1228	1417.95862	-1000.742	1173.93103	1419.27075	-1205.02588	1286.0249	1518.12659	-1084.63464	1385.60632	1259.95117	-1166.8916	1201.8988	1198.92383	-1219.03174	1101.35706	1196.71814	-1261.3772	956.11499	1179.36243	-1248.80103	826.37994	1218.76331	-1310.7749	847.51233	1188.2406	-1307.48608	755.72375	1188.91101	-1044.53674	1393.72131	1580.13794	-1085.42639	1203.4895	1681.90015	-1078.05762	1082.82324	1699.86719	-1039.68945	968.86566	1710.73145	-958.56042	847.85864	1663.26257	-1005.07202	837.17719	1711.67749	-952.34277	771.52148	1704.98535	-1024.26611	950.18396	1331.9176	-1028.12354	947.93457	1551.14648	-1181.77563	981.29034	1354.44678	-1177.27295	983.9751	1522.76575	-1049.13123	640.62646	1263.42212	-1004.82581	484.91388	1293.59058	-965.78235	234.18953	1301.66821	-908.35364	70.29834	1341.63989	-940.84705	47.17842	1389.7677	-760.76971	73.98265	1344.99402	-1147.47241	625.29559	1603.81714	-1179.24255	501.81097	1586.59351	-1332.07324	277.65308	1592.17175	-1423.97034	111.69668	1553.39392	-1472.6001	102.4657	1512.25562	-1290.40015	34.99841	1540.30298	-1075.5531	1682.96484	1413.26868	NaN	NaN	NaN	NaN	NaN	NaN	NaN	NaN	NaN	NaN	NaN	NaN	NaN	NaN	NaN	NaN	NaN	NaN	NaN	NaN	NaN
6	0.05	-976.93622	1638.38245	1343.71545	-960.76227	1633.98877	1474.88745	-1110.68811	1588.23999	1362.07275	-1092.94775	1588.53162	1490.21008	-1112.09619	1440.28735	1423.15051	-1183.18323	1118.11108	1443.0968	-1010.26849	1351.06616	1416.95032	-992.23016	1174.04089	1418.34827	-1197.10754	1285.36548	1517.00928	-1076.81763	1385.22559	1258.85535	-1158.62097	1201.28564	1197.8739	-1210.21863	1100.45276	1196.07446	-1252.74512	955.1637	1179.18176	-1239.79163	825.50708	1219.13904	-1301.71216	846.44171	1188.42261	-1298.46509	754.67206	1189.69653	-1037.11523	1393.68042	1579.13306	-1077.78308	1203.38086	1680.93298	-1070.55945	1082.66528	1698.74695	-1032.71301	968.52173	1709.74829	-952.02502	847.05487	1662.71606	-998.6889	836.64471	1711.05884	-946.25391	770.71942	1704.55566	-1014.11523	950.26221	1331.0929	-1018.81238	947.88654	1550.32861	-1171.8833	980.85602	1353.34875	-1167.95093	983.23981	1521.59351	-1039.69482	640.42255	1263.64392	-997.14752	484.13525	1293.26526	-962.46973	232.40041	1302.35632	-908.48517	67.69109	1342.87512	-940.81213	45.66245	1390.86938	-760.97253	67.68029	1344.75977	-1138.13196	625.06659	1603.37585	-1170.09717	501.5719	1586.22925	-1326.19177	279.59732	1592.04285	-1421.24573	115.25728	1554.01294	-1470.25012	107.48663	1513.09412	-1290.11609	35.1174	1540.20935	-1068.14624	1682.84326	1412.38794	NaN	NaN	NaN	NaN	NaN	NaN	NaN	NaN	NaN	NaN	NaN	NaN	NaN	NaN	NaN	NaN	NaN	NaN	NaN	NaN	NaN
7	0.06	-969.26257	1638.54016	1342.91711	-953.44659	1633.97815	1474.16333	-1103.12451	1588.25537	1360.83569	-1085.69958	1588.36975	1489.06482	-1104.5658	1440.14819	1421.82996	-1174.11377	1117.40771	1441.82043	-1002.43921	1351.17346	1415.80896	-983.45734	1174.29041	1417.44531	-1189.23621	1284.71558	1515.64917	-1068.84741	1384.9093	1257.62146	-1149.64551	1200.44763	1196.80872	-1200.98865	1099.41956	1195.33301	-1242.68311	953.73474	1178.84753	-1230.11084	824.51324	1219.44434	-1291.9762	845.23407	1188.30444	-1288.67493	753.37653	1190.21936	-1029.6532	1393.71948	1578.02563	-1070.41064	1203.41748	1679.79736	-1062.85742	1082.47351	1697.74072	-1026.51746	968.31061	1708.79736	-945.61633	846.28833	1662.20178	-992.5965	836.18311	1710.44495	-940.33685	770.04431	1704.19568	-1003.99011	950.3894	1330.1947	-1007.89032	948.17554	1550.09985	-1161.93896	980.53442	1351.9198	-1158.44519	982.56317	1520.40601	-1030.24426	640.47229	1263.4624	-990.09314	483.62897	1292.99915	-959.30542	231.23544	1303.36133	-906.22961	67.61653	1343.59009	-938.38293	47.64435	1392.20996	-758.27521	60.60358	1343.95886	-1128.48938	624.86505	1602.82043	-1160.70703	501.40198	1585.80249	-1320.16711	281.73187	1592.021	-1418.23193	119.08691	1554.71606	-1466.88123	111.86994	1513.6626	-1289.79492	35.20404	1540.07898	-1060.69067	1682.82275	1411.42224	NaN	NaN	NaN	NaN	NaN	NaN	NaN	NaN	NaN	NaN	NaN	NaN	NaN	NaN	NaN	NaN	NaN	NaN	NaN	NaN	NaN
8	0.07	-961.49384	1639.13354	1342.09631	-946.04315	1634.29602	1473.2533	-1095.323	1588.48853	1359.45117	-1078.41895	1588.37549	1487.91589	-1096.76282	1440.28674	1420.39258	-1164.89795	1116.93848	1440.83826	-994.38849	1351.60632	1414.73767	-974.8277	1174.76294	1416.49854	-1181.19531	1284.29407	1513.95264	-1060.6355	1384.62659	1256.17004	-1140.28662	1199.52905	1195.57581	-1191.32715	1098.26099	1194.33362	-1232.43262	952.43933	1178.29529	-1219.7262	823.33331	1219.48901	-1281.38635	843.76941	1187.87146	-1278.12329	751.91833	1190.43433	-1022.09747	1393.9895	1576.92102	-1062.65942	1203.41516	1678.66748	-1055.245	1082.48767	1696.59607	-1018.99139	968.1405	1707.92432	-939.33966	845.51434	1661.72791	-986.47052	835.68555	1709.80908	-934.83862	769.35437	1703.75061	-993.85754	950.63873	1329.19397	-998.82556	948.03119	1548.77002	-1151.42676	980.13971	1350.57434	-1148.53052	982.00562	1519.18677	-1021.05957	640.97449	1263.08008	-984.93182	483.23453	1292.07495	-954.64752	231.48189	1302.94006	-901.58643	68.1777	1342.53198	-935.04205	49.97407	1391.35852	-754.26447	54.89885	1343.68457	-1118.22546	624.54535	1601.92737	-1151.07935	501.41235	1585.28613	-1313.79187	284.11414	1591.88623	-1414.70251	123.22011	1555.50269	-1463.40247	117.28895	1514.59863	-1289.34546	35.29925	1539.91785	-1053.27966	1683.0575	1410.38733	NaN	NaN	NaN	NaN	NaN	NaN	NaN	NaN	NaN	NaN	NaN	NaN	NaN	NaN	NaN	NaN	NaN	NaN	NaN	NaN	NaN
